<svg t="1781797952346" class="icon" viewBox="0 0 1024 1024" version="1.1" xmlns="http://www.w3.org/2000/svg" p-id="6501" width="200" height="200"><path d="M751.4 749.4H516c-86.8 0-157.1-70.3-157.1-157.1S429.2 435.2 516 435.2h235.3v314.2z" fill="#FFCE00" p-id="6502"></path><path d="M764.3 890.3H230.2c-63.1 0-114.4-51.3-114.4-114.4V248.2c0-63.1 51.3-114.4 114.4-114.4h534.1c24.9 0 45 20.1 45 45v221.5c0 24.9-20.1 45-45 45H538.9c-17.8 0-34.6 6.9-47.2 19.6-12.6 12.6-19.5 29.4-19.5 47.2 0 36.8 29.9 66.8 66.7 66.8h225.4c24.9 0 45 20.1 45 45v221.5c0 24.7-20.2 44.9-45 44.9zM230.2 223.7c-13.5 0-24.4 11-24.4 24.4v527.7c0 13.5 11 24.4 24.4 24.4h489.1V668.8H538.9c-86.4 0-156.7-70.3-156.7-156.8 0-41.9 16.3-81.2 45.9-110.8 29.6-29.6 69-45.9 110.8-45.9h180.4V223.7H230.2z" fill="#242F44" p-id="6503"></path><path d="M863.2 668.8H538.9c-86.4 0-156.7-70.3-156.7-156.8 0-41.9 16.3-81.2 45.9-110.8 29.6-29.6 69-45.9 110.8-45.9h324.3c24.9 0 45 20.1 45 45v223.5c0 24.8-20.1 45-45 45zM538.9 445.3c-17.8 0-34.6 6.9-47.2 19.6-12.6 12.6-19.5 29.4-19.5 47.2 0 36.8 29.9 66.8 66.7 66.8h279.3V445.3H538.9z" fill="#242F44" p-id="6504"></path><path d="M567.5 512m-42.9 0a42.9 42.9 0 1 0 85.8 0 42.9 42.9 0 1 0-85.8 0Z" fill="#242F44" p-id="6505"></path></svg>
